<svg id="e443a20f-7d35-4918-8cc4-c78067540f51" data-name="Capa 1" xmlns="http://www.w3.org/2000/svg" xmlns:xlink="http://www.w3.org/1999/xlink" viewBox="0 0 195.97 129.57"><defs><linearGradient id="b4f0e586-e216-4d79-883f-1356d62623c0" x1="59.62" y1="39.04" x2="141.68" y2="39.04" gradientUnits="userSpaceOnUse"><stop offset="0" stop-color="#c29b2d"/><stop offset=".03" stop-color="#c6a137"/><stop offset=".2" stop-color="#e0c375"/><stop offset=".29" stop-color="#ead08d"/><stop offset=".36" stop-color="#ecd397"/><stop offset=".48" stop-color="#f2dbb1"/><stop offset=".56" stop-color="#f7e2c7"/><stop offset=".78" stop-color="#e6c888"/><stop offset=".82" stop-color="#e2c47f"/><stop offset=".89" stop-color="#d9b867"/><stop offset=".97" stop-color="#c9a43f"/><stop offset="1" stop-color="#c29b2d"/></linearGradient><linearGradient id="ad949202-50ef-4e78-a0b0-159ea2552d8a" x1="59.62" y1="100.21" x2="141.68" y2="100.21" xlink:href="#b4f0e586-e216-4d79-883f-1356d62623c0"/><linearGradient id="e4757ad0-5838-40b6-8f88-3249d3d7cfbd" x1="38.4" y1="28.26" x2="162.9" y2="28.26" xlink:href="#b4f0e586-e216-4d79-883f-1356d62623c0"/><linearGradient id="e424a0a6-033d-4132-8d06-b964ff403df8" x1="38.4" y1="110.99" x2="162.9" y2="110.99" xlink:href="#b4f0e586-e216-4d79-883f-1356d62623c0"/><style>.bd1682bb-9f80-4da3-a6dd-90128e1eed65{fill:#1d1d1b}</style></defs><path d="M62.22 52.81a41.94 41.94 0 0176.86 0h2.6a44.34 44.34 0 00-82.06 0z" transform="translate(-3.12 -4.84)" fill="url(#b4f0e586-e216-4d79-883f-1356d62623c0)"/><path d="M139.09 86.44a41.94 41.94 0 01-76.87 0h-2.6a44.34 44.34 0 0082.06 0z" transform="translate(-3.12 -4.84)" fill="url(#ad949202-50ef-4e78-a0b0-159ea2552d8a)"/><path d="M42.38 51.69a61 61 0 01116.54 0h4a64.78 64.78 0 00-124.5 0z" transform="translate(-3.12 -4.84)" fill="url(#e4757ad0-5838-40b6-8f88-3249d3d7cfbd)"/><path d="M158.92 87.56a61 61 0 01-116.54 0h-4a64.78 64.78 0 00124.5 0z" transform="translate(-3.12 -4.84)" fill="url(#e424a0a6-033d-4132-8d06-b964ff403df8)"/><path class="bd1682bb-9f80-4da3-a6dd-90128e1eed65" d="M59.65 55.69h4.66c2.73 0 4.37 1.61 4.37 3.94 0 2.64-2.05 4-4.61 4h-1.91v3.47h-2.51zm4.5 5.75a1.77 1.77 0 002-1.72c0-1.12-.78-1.73-2-1.73h-1.99v3.49zM70.17 55.69h5.22a4.56 4.56 0 013.33 1.15 3.62 3.62 0 011 2.61A3.55 3.55 0 0177.25 63L80 67.1h-2.9l-2.45-3.65h-2v3.65h-2.48zm5.06 5.54c1.22 0 1.92-.65 1.92-1.61 0-1.07-.75-1.63-2-1.63h-2.5v3.28zM81 61.43a5.91 5.91 0 016.09-5.91 5.85 5.85 0 016 5.87 6.07 6.07 0 01-12.14 0zm9.51 0A3.46 3.46 0 0087 57.81a3.41 3.41 0 00-3.43 3.55A3.47 3.47 0 0087.05 65a3.41 3.41 0 003.42-3.57zM95 55.69h5.3a4.13 4.13 0 013 1 2.62 2.62 0 01.78 1.94 2.63 2.63 0 01-1.5 2.46 2.81 2.81 0 012.14 2.81c0 2.09-1.7 3.13-4.28 3.13H95zm6.58 3.37c0-.75-.59-1.17-1.65-1.17h-2.51v2.41h2.32c1.1 0 1.81-.36 1.81-1.2zm-1.23 3.33h-2.9v2.51h3c1.11 0 1.78-.39 1.78-1.24-.05-.8-.62-1.27-1.91-1.27zM110.09 55.6h2.31l4.9 11.5h-2.63l-1-2.56h-4.87l-1 2.56h-2.56zm2.64 6.73l-1.52-3.71-1.51 3.71zM118.61 55.69h4.45c3.59 0 6.07 2.46 6.07 5.67a5.71 5.71 0 01-6.07 5.7h-4.45zm2.51 2.31v6.89h1.94a3.25 3.25 0 003.44-3.41 3.28 3.28 0 00-3.44-3.48zM130.42 61.43a6.07 6.07 0 0112.14 0 6.07 6.07 0 01-12.14 0zm9.51 0a3.47 3.47 0 00-3.46-3.59 3.41 3.41 0 00-3.42 3.55 3.46 3.46 0 003.46 3.61 3.41 3.41 0 003.42-3.57zM3.12 72h4.45c3.59 0 6.07 2.46 6.07 5.67a5.71 5.71 0 01-6.07 5.71H3.12zm2.51 2.26v6.89h1.94A3.25 3.25 0 0011 77.74a3.28 3.28 0 00-3.44-3.44zM15.1 72h8.62v2.23H17.6v2.32H23v2.23h-5.4v2.4h6.2v2.23h-8.7zM25.43 72h5.22A4.56 4.56 0 0134 73.15a3.63 3.63 0 011 2.61 3.53 3.53 0 01-2.45 3.53l2.79 4.08h-2.98l-2.44-3.65h-2v3.65h-2.49zm5.06 5.54c1.22 0 1.92-.65 1.92-1.61 0-1.07-.75-1.63-2-1.63h-2.5v3.28zM36.53 72h2.71l3 4.82 3-4.82H48v11.41h-2.5V76l-3.21 4.88h-.07L39 76v7.4h-2.47zM53.74 71.91h2.32L61 83.41h-2.67l-1-2.56h-4.88l-1 2.56h-2.6zm2.64 6.72l-1.51-3.7-1.52 3.7zM63.17 74.31h-3.48V72h9.46v2.31h-3.47v9.1h-2.51zM69.41 77.74a6.07 6.07 0 0112.13 0 6.07 6.07 0 01-12.13 0zm9.51 0a3.47 3.47 0 00-3.46-3.58A3.41 3.41 0 0072 77.67a3.47 3.47 0 003.46 3.59 3.42 3.42 0 003.46-3.52zM83 72h2.51v9.13h5.69v2.28H83zM91.48 77.74a6.07 6.07 0 0112.14 0 6.07 6.07 0 01-12.14 0zm9.51 0a3.46 3.46 0 00-3.45-3.58 3.41 3.41 0 00-3.43 3.55 3.47 3.47 0 003.46 3.59 3.41 3.41 0 003.43-3.56zm-2.48-9.37l2.14.93-2.22 1.63h-1.89zM104.51 77.74a5.85 5.85 0 016-5.9 6.24 6.24 0 014.49 1.53l-1.58 1.9a4.23 4.23 0 00-3-1.15 3.42 3.42 0 00-3.28 3.55 3.43 3.43 0 003.46 3.63 4 4 0 002.36-.69V79h-2.52v-2.16h5v5a7.45 7.45 0 01-4.88 1.81 5.71 5.71 0 01-6.05-5.91zM117.25 72h2.51v11.41h-2.51zM121.28 77.74a5.8 5.8 0 016-5.9 5.9 5.9 0 014.5 1.76l-1.6 1.84a4.18 4.18 0 00-2.92-1.28 3.38 3.38 0 00-3.31 3.55 3.39 3.39 0 003.31 3.59 4.15 4.15 0 003-1.33l1.59 1.61a6 6 0 01-10.53-3.83zM136.9 71.91h2.32l4.89 11.5h-2.63l-1-2.56h-4.83l-1 2.56H132zm2.64 6.72l-1.54-3.7-1.51 3.7zM145 72h2.71l3 4.82 3-4.82h2.71v11.41h-2.5V76l-3.21 4.88h-.07L147.47 76v7.4H145zM158.51 72h8.61v2.23H161v2.32h5.39v2.23H161v2.4h6.2v2.23h-8.69zM168.84 72h2.31l5.35 7v-7h2.5v11.41h-2.13l-5.53-7.26v7.26h-2.48zM183.43 74.31H180V72h9.46v2.31h-3.48v9.1h-2.51zM190.39 72H199v2.23h-6.11v2.32h5.38v2.23h-5.38v2.4h6.19v2.23h-8.69zM55.74 92l1.33 1.44-5.28 4.89 3.05 3.29-1.34 1.23-4.39-4.74zM59.83 99.4l1.05 1.52-2.25.43-1.24-.77zM59.3 105.58a4.79 4.79 0 018.45 4.5 4.8 4.8 0 01-8.45-4.53zm6.62 3.56a2.73 2.73 0 00-1.06-3.78 2.7 2.7 0 00-3.72 1.19 2.73 2.73 0 104.79 2.6zM71.08 109.78l3.74 1.83a3.7 3.7 0 012 2 2.82 2.82 0 01-.22 2.21 2.83 2.83 0 01-3 1.69l.58 3.9-2.12-1-.47-3.49-1.43-.68-1.27 2.61-1.79-.85zm1.71 5.76a1.32 1.32 0 001.94-.5c.38-.77 0-1.42-.84-1.85l-1.79-.86-1.1 2.32zM79.39 114.7l6.69 1.64-.43 1.73-4.75-1.16-.43 1.79 4.18 1-.43 1.73-4.17-1-.46 1.87 4.81 1.16-.4 1.76-6.75-1.64zm4.76-1.7l1.49 1.14-2 .85-1.47-.35zM90.51 116.83l1.83-.08 4.27 8.89-2.09.1-.91-2-3.79.17-.75 2-2 .09zm2.32 5.17l-1.32-2.87-1.07 3zM98.19 117.44l2-.2.78 7.21 4.47-.47.2 1.81-6.47.67zM109.72 116.36l3.63-.62c2.13-.37 3.63.67 3.94 2.49.34 2-1.07 3.38-3.07 3.72l-1.49.26.46 2.65-2 .35zm4.28 3.88a1.39 1.39 0 001.31-1.61c-.15-.87-.84-1.23-1.83-1.08l-1.5.26.47 2.73zM120.43 112.51l1.71-.64L129 119l-2 .74-1.5-1.62-3.5 1.4-.07 2.19-1.9.73zm3.84 4.25l-2.16-2.33-.11 3.19zM125.47 109.76l3.51-2.18a3.57 3.57 0 012.74-.6 2.75 2.75 0 011.73 1.36 2.83 2.83 0 01-.17 3.41l3.56 1.59-2 1.23-3.17-1.45-1.33.83 1.52 2.45-1.68 1zm5.72 1.63a1.32 1.32 0 00.62-1.89c-.43-.74-1.17-.79-2-.27l-1.68 1 1.35 2.21zM134 105.28l1.44-1.36 6.15 6.57-1.42 1.35zM142.36 107.41l-.21-1.84a4.12 4.12 0 002.66-1.19c.57-.6.68-1.18.3-1.55-.37-.34-.78-.3-2.11.53-1.61 1-2.77 1.51-4.09.26-1.19-1.15-1.06-2.87.22-4.21a5.32 5.32 0 013.16-1.64l.37 1.79a4.3 4.3 0 00-2.27 1.1c-.53.54-.55 1.08-.22 1.39.42.43.82.26 2.2-.59 1.62-1 2.81-1.3 4-.21 1.31 1.25 1.1 2.95-.26 4.36a5.84 5.84 0 01-3.75 1.8zM56.59 41.58a5.28 5.28 0 01-.68-7.58 5.37 5.37 0 013.86-2.12l.35 2.12a3.88 3.88 0 00-2.6 1.29 3.1 3.1 0 00.56 4.4 3.08 3.08 0 004.44-.22 3.79 3.79 0 00.82-2.88l2.06-.18a5.34 5.34 0 01-1.3 4.47 5.26 5.26 0 01-7.51.7zM60.89 28.83l3.71-3a4.15 4.15 0 013-1.08 3.27 3.27 0 012.19 1.3 3.25 3.25 0 01.32 3.95l4.31 1.3-2.08 1.7-3.83-1.2-1.4 1.13 2.09 2.57-1.79 1.44zm6.76 1.05a1.51 1.51 0 00.44-2.25c-.61-.77-1.46-.73-2.33 0L64 29l1.87 2.33zM70.5 21.62L77.44 18l1 1.81-4.93 2.59 1 1.87L78.78 22l1 1.8-4.39 2.2 1 1.93 5-2.63.95 1.81-7 3.68zM84.1 15.55l2-.59 7.19 8.83-2.29.66-1.57-2-4.19 1.25-.24 2.5-2.24.65zm4 5.21l-2.25-2.86-.39 3.63zM93.34 13.38l4-.27a5.18 5.18 0 015.87 4.79 5.21 5.21 0 01-5.17 5.56l-4 .27zm2.43 1.91l.42 6.26 1.81-.12a3 3 0 002.92-3.31 3 3 0 00-3.34-2.92zM105 18a5.38 5.38 0 016.32-4.45 5.32 5.32 0 014.68 6.1 5.39 5.39 0 01-6.32 4.45A5.33 5.33 0 01105 18zm8.56 1.36a3.17 3.17 0 00-2.56-3.78 3.11 3.11 0 00-3.59 2.71 3.17 3.17 0 002.6 3.73 3.11 3.11 0 003.59-2.68zM124.37 17.16l3.84 1.84c2.25 1.06 3 3 2.06 5-1 2.18-3.26 2.51-5.37 1.51l-1.57-.75-1.33 2.78-2.06-1zm1.46 6.5a1.6 1.6 0 002.31-.65c.44-.93 0-1.73-1-2.22l-1.6-.76-1.36 2.87zM131 26.13a5.39 5.39 0 017.67-.92 5.33 5.33 0 011.14 7.6 5.53 5.53 0 01-8.81-6.68zm6.89 5.26a3.17 3.17 0 00-.52-4.51 3.12 3.12 0 00-4.45.69 3.16 3.16 0 00.53 4.51 3.11 3.11 0 004.39-.69zM145.31 31.15l3.08 3.63a4.15 4.15 0 011.15 3 3.21 3.21 0 01-1.23 2.22 3.23 3.23 0 01-3.9.39l-1.19 4.34-1.73-2 1.1-3.85-1.17-1.38-2.53 2.16-1.49-1.75zm-.87 6.79a1.5 1.5 0 002.25.38c.74-.63.69-1.48 0-2.33l-1.47-1.74-2.28 1.94z" transform="translate(-3.12 -4.84)"/></svg>